<svg id="svg" version="1.1" xmlns="http://www.w3.org/2000/svg" xmlns:xlink="http://www.w3.org/1999/xlink" width="400" height="400" viewBox="0, 0, 400,400"><g id="svgg"><path id="path0" d="M261.000 39.268 C 257.332 40.632,255.810 42.937,254.813 48.639 C 254.394 51.038,253.779 54.440,253.447 56.200 C 253.115 57.960,252.553 62.008,252.196 65.196 C 251.840 68.383,251.298 72.185,250.991 73.643 C 248.916 83.505,251.320 89.069,258.108 90.119 C 260.932 90.556,265.992 88.257,267.208 85.985 C 267.818 84.846,270.202 71.645,270.781 66.200 C 271.038 63.780,271.708 59.225,272.268 56.078 C 273.645 48.354,273.496 45.678,271.528 42.714 C 269.344 39.424,264.681 37.898,261.000 39.268 M301.112 56.017 C 298.123 56.526,296.012 58.389,287.071 68.413 C 282.271 73.796,276.242 80.505,273.674 83.321 C 267.955 89.594,268.032 89.458,268.014 93.455 C 267.973 103.002,278.278 106.164,284.974 98.658 C 313.108 67.123,311.318 69.417,311.318 64.890 C 311.318 59.103,306.678 55.069,301.112 56.017 M214.200 90.269 C 213.540 90.350,209.850 90.786,206.000 91.237 C 199.192 92.033,190.113 93.869,183.200 95.845 C 169.289 99.822,163.451 100.858,150.800 101.592 C 138.973 102.279,135.487 103.243,132.136 106.752 C 122.236 117.120,123.822 138.742,135.360 150.717 C 138.355 153.826,140.537 155.180,149.299 159.368 C 170.072 169.295,180.430 177.189,181.429 183.854 C 181.971 187.470,181.054 188.620,164.401 205.200 C 145.799 223.720,139.596 231.281,131.910 244.800 C 124.799 257.308,118.778 273.940,116.977 286.047 C 116.638 288.331,116.007 292.360,115.575 295.000 C 113.172 309.696,115.159 315.921,122.493 316.672 C 129.111 317.350,131.982 314.017,132.997 304.474 C 133.317 301.463,133.932 297.020,134.362 294.600 C 134.792 292.180,135.351 288.791,135.604 287.070 C 135.857 285.348,136.416 282.918,136.847 281.670 C 137.278 280.421,137.981 278.027,138.411 276.350 C 139.400 272.485,143.638 261.900,145.659 258.244 C 145.888 257.828,146.723 256.298,147.514 254.844 C 153.767 243.337,163.172 231.791,177.034 218.601 C 196.543 200.037,200.400 194.519,200.400 185.171 C 200.400 169.205,184.518 154.307,152.799 140.515 C 147.480 138.203,146.474 134.717,150.506 132.575 C 154.765 130.313,157.200 126.956,157.200 123.346 C 157.200 120.744,158.541 119.801,162.800 119.408 C 166.452 119.071,178.124 116.601,183.600 115.007 C 230.772 101.273,257.213 109.765,261.419 140.000 C 263.304 153.556,262.308 172.206,259.335 179.000 C 252.745 194.062,242.161 188.680,234.325 166.280 C 230.419 155.116,216.487 155.154,215.684 166.331 C 215.515 168.671,215.694 169.342,218.311 176.200 C 230.405 207.894,254.972 216.691,271.373 195.200 C 279.104 185.069,282.298 166.954,280.430 143.833 C 279.764 135.589,279.579 134.674,276.562 124.708 C 271.684 108.596,256.122 94.945,239.060 91.812 C 230.589 90.257,219.735 89.583,214.200 90.269 M315.000 95.065 C 312.140 95.835,307.910 96.967,305.600 97.579 C 303.290 98.192,299.960 99.143,298.200 99.692 C 296.440 100.242,293.371 101.087,291.380 101.571 C 289.389 102.054,286.796 102.934,285.618 103.525 C 279.262 106.714,279.347 116.725,285.754 119.635 C 289.288 121.240,294.327 120.371,311.600 115.177 C 313.690 114.549,316.660 113.749,318.200 113.399 C 329.512 110.832,334.141 105.375,330.756 98.598 C 328.199 93.478,324.213 92.584,315.000 95.065 M199.800 121.662 C 193.683 124.821,192.306 131.224,196.636 136.370 C 201.341 141.961,210.972 139.502,212.477 132.325 C 214.082 124.673,206.430 118.237,199.800 121.662 M252.646 212.589 C 247.761 214.330,245.427 219.583,247.042 225.200 C 247.390 226.410,247.931 228.300,248.243 229.400 C 251.003 239.112,250.642 262.097,247.586 271.200 C 246.959 273.070,246.239 276.040,245.986 277.800 C 244.930 285.166,243.329 285.345,243.829 278.041 C 245.135 258.926,243.457 254.990,233.636 254.131 C 229.609 253.779,229.020 253.189,229.364 249.855 C 231.246 231.636,228.817 218.212,223.106 215.273 C 219.219 213.272,214.101 214.377,211.687 217.739 C 209.311 221.048,209.230 222.615,211.018 230.800 C 212.530 237.722,210.772 252.202,207.370 260.851 C 202.621 272.924,206.967 278.504,219.959 277.013 C 225.296 276.401,225.355 278.610,220.288 289.182 C 217.592 294.807,217.835 298.351,221.142 301.654 C 227.572 308.076,235.402 303.412,240.375 290.200 C 242.545 284.436,243.558 288.513,241.951 296.544 C 239.546 308.564,242.364 318.163,249.400 321.924 C 251.888 323.254,257.479 325.711,259.527 326.375 L 261.653 327.064 256.327 327.547 C 253.397 327.813,249.873 328.119,248.496 328.227 C 237.762 329.069,236.032 342.497,246.200 346.042 C 248.856 346.968,268.250 346.831,271.383 345.865 C 293.173 339.141,289.163 309.891,266.006 306.649 C 259.360 305.719,259.186 305.284,261.353 295.000 C 261.909 292.360,262.798 288.760,263.327 287.000 C 263.857 285.240,264.506 282.540,264.769 281.000 C 265.032 279.460,265.669 276.490,266.184 274.400 C 269.003 262.961,269.528 239.446,267.197 229.000 C 266.453 225.666,263.957 217.427,263.508 216.827 C 260.433 212.709,256.554 211.196,252.646 212.589 M160.848 260.051 C 153.634 261.249,150.084 267.198,153.041 273.133 C 155.099 277.262,157.830 278.429,165.137 278.303 C 173.132 278.165,176.102 279.524,179.176 284.728 C 181.970 289.457,182.432 297.548,180.239 303.348 C 177.025 311.847,180.749 318.810,191.390 324.200 L 196.128 326.600 201.364 326.801 L 206.600 327.003 199.200 327.365 C 195.130 327.564,173.530 327.743,151.200 327.762 L 110.600 327.797 105.845 326.512 C 100.073 324.952,96.205 322.855,92.794 319.435 C 83.299 309.915,85.524 293.894,97.158 288.021 C 104.064 284.535,106.475 278.708,103.065 273.744 C 95.675 262.985,75.460 275.484,69.981 294.200 C 62.155 320.935,81.488 344.182,113.400 346.409 C 120.361 346.895,209.665 346.901,213.880 346.417 C 228.042 344.788,235.649 330.978,229.310 318.404 C 225.248 310.346,217.759 306.400,206.528 306.400 C 199.914 306.400,200.088 306.708,199.885 294.600 L 199.751 286.600 198.278 282.253 C 192.605 265.504,178.476 257.123,160.848 260.051 " stroke="none" fill="#005C64" fill-rule="evenodd"></path></g></svg>